# File created by Blade
# Date/Time:  Thu Sep 25 15:55:53 2014
# Frame Rate: 120.000 fps
#------------------------------------------------------
:FULLY-SPECIFIED
:DEGREES
848
root -1.642585 32.854868 2.751344 11.922348 -1.821860 -2.632483
Spine -12.753901 6.129070 1.233712
Head -11.661218 -9.199415 13.530053
LeftShoulder -14.949191 22.516177 28.890910
LeftArm 17.040780 -24.789188 -26.421856
LeftForeArm 9.803371 -0.000000 11.421939
LeftHand -26.972217 -0.000000 -9.347319
LeftHandThumb1 -26.253704 0.000000 33.147579
RightShoulder -20.274508 10.228235 -41.685397
RightArm -9.081443 10.181984 28.151888
RightForeArm -31.634492 -0.000000 15.356939
RightHand -12.365907 -0.000000 8.621813
RightHandThumb1 -24.326973 -0.000000 -32.862282
LeftUpLeg -5.622760 13.389099 -2.553984
LeftLeg -0.672970 -0.000000 0.000000
LeftFoot -8.041414 -5.300482 -20.059996
LeftToeBase 4.692932 -0.000000 -0.000000
RightUpLeg -6.672752 -2.996620 2.442456
RightLeg 2.089862 -0.000000 -0.000000
RightFoot -8.978992 2.323634 -2.800960
RightToeBase -4.772491 -0.000000 0.000000
849
root -1.643845 32.854408 2.746411 11.915319 -1.798604 -2.647260
Spine -12.766967 6.149689 1.223840
Head -11.615292 -9.227935 13.540128
LeftShoulder -14.983540 22.553872 28.842703
LeftArm 17.183123 -24.767567 -26.412330
LeftForeArm 9.786309 -0.000000 11.365774
LeftHand -26.940807 -0.000000 -9.422979
LeftHandThumb1 -26.253704 0.000000 33.147579
RightShoulder -20.280578 10.230364 -41.648100
RightArm -9.043758 10.108652 28.142770
RightForeArm -31.521634 -0.000000 15.379269
RightHand -12.065203 -0.000000 8.750331
RightHandThumb1 -24.326973 -0.000000 -32.862282
LeftUpLeg -5.608423 13.345279 -2.534519
LeftLeg -0.708336 -0.000000 0.000000
LeftFoot -8.053156 -5.244381 -20.049482
LeftToeBase 4.407904 -0.000000 -0.000000
RightUpLeg -6.678751 -3.014252 2.469505
RightLeg 2.099705 -0.000000 -0.000000
RightFoot -8.980389 2.275900 -2.875640
RightToeBase -4.748579 -0.000000 0.000000
850
root -1.644651 32.854461 2.740986 11.909447 -1.778811 -2.651718
Spine -12.786107 6.158556 1.207084
Head -11.556325 -9.240356 13.539871
LeftShoulder -14.985258 22.573313 28.823502
LeftArm 17.267096 -24.768345 -26.446222
LeftForeArm 9.735524 -0.000000 11.363195
LeftHand -26.996472 -0.000000 -9.281859
LeftHandThumb1 -26.253704 0.000000 33.147579
RightShoulder -20.280165 10.235796 -41.623840
RightArm -8.988568 10.118690 28.145956
RightForeArm -31.528708 -0.000000 15.385520
RightHand -11.922141 -0.000000 8.773509
RightHandThumb1 -24.326973 -0.000000 -32.862282
LeftUpLeg -5.614602 13.335354 -2.528468
LeftLeg -0.705732 -0.000000 0.000000
LeftFoot -8.046452 -5.251860 -20.029787
LeftToeBase 4.667395 -0.000000 -0.000000
RightUpLeg -6.683094 -3.030662 2.480950
RightLeg 2.101900 -0.000000 -0.000000
RightFoot -8.976149 2.277492 -2.867677
RightToeBase -4.747089 -0.000000 0.000000
851
root -1.647079 32.854296 2.735542 11.903721 -1.763447 -2.659069
Spine -12.806314 6.176000 1.187403
Head -11.493517 -9.245124 13.544534
LeftShoulder -14.955966 22.555003 28.813329
LeftArm 17.304763 -24.714171 -26.425228
LeftForeArm 9.780838 -0.000000 11.298298
LeftHand -26.905735 -0.000000 -9.146752
LeftHandThumb1 -26.253704 0.000000 33.147579
RightShoulder -20.272808 10.219657 -41.612772
RightArm -8.964859 10.100874 28.182740
RightForeArm -31.506500 -0.000000 15.462175
RightHand -11.975564 -0.000000 8.707787
RightHandThumb1 -24.326973 -0.000000 -32.862282
LeftUpLeg -5.624136 13.325314 -2.515018
LeftLeg -0.695204 -0.000000 0.000000
LeftFoot -8.054422 -5.256367 -20.033701
LeftToeBase 4.712259 -0.000000 -0.000000
RightUpLeg -6.679030 -3.034029 2.495128
RightLeg 2.084883 -0.000000 -0.000000
RightFoot -8.965606 2.269969 -2.884074
RightToeBase -4.735100 -0.000000 0.000000
